# xmcd
#
# Track frame offsets:
#	150
#	14092
#	27330
#	37877
#	47808
#	62947
#	79476
#	93937
#	105406
#	119292
#	134500
#	156129
#	174990
#	192369
#	212936
#	223344
#	235105
#	247709
#	260870
#
# Disc length: 3539 seconds
#
# Revision: 1
# Processed by: cddbd v1.5.2PL0 Copyright (c) Steve Scherf et al.
# Submitted via: audiograbber 1.83.01
#
DISCID=130dd113
DTITLE=Los Santos - Highlights
DYEAR=2003
DGENRE=
TTITLE0=Hallo, Guten Morgen Deutschland
TTITLE1=Country Roads
TTITLE2=Wasted on the Way
TTITLE3=Tiroler Land
TTITLE4=Guten Morgen - Autobahn
TTITLE5=Ginny come latley
TTITLE6=Sloop John B.
TTITLE7=Who´ll stop the Rain
TTITLE8=Musicbox Dancer
TTITLE9=Patricia
TTITLE10=Hymm
TTITLE11=Wer Weiß
TTITLE12=Ghostriders in the Sky
TTITLE13=House of the rising Sun
TTITLE14=Wipe Out
TTITLE15=Livin Doll
TTITLE16=Appenzeller
TTITLE17=Tief drin im Böhmerwald
TTITLE18=Sag beim Abschied leise Servus
EXTD=
EXTT0=
EXTT1=
EXTT2=
EXTT3=
EXTT4=
EXTT5=
EXTT6=
EXTT7=
EXTT8=
EXTT9=
EXTT10=
EXTT11=
EXTT12=
EXTT13=
EXTT14=
EXTT15=
EXTT16=
EXTT17=
EXTT18=
PLAYORDER=
